<?xml version="1.0" encoding="UTF-8"?>
<svg version="1.1" xmlns="http://www.w3.org/2000/svg" width="282" height="280">
<path d="M0 0 C3.21335692 6.6957882 4.93374444 13.74678607 6.80078125 20.91015625 C7.16276953 22.28247406 7.5252625 23.65465883 7.88822937 25.02671814 C8.84243596 28.63868412 9.79038309 32.2522625 10.73681641 35.86627197 C11.86587604 40.1736249 13.00147654 44.47925656 14.13708305 48.78488731 C15.05727583 52.27406231 15.97566289 55.76368455 16.88943481 59.25454712 C18.51328356 65.44762938 20.16238377 71.63044155 21.91552734 77.78857422 C22.20324509 78.80616318 22.49096283 79.82375214 22.78739929 80.87217712 C23.31412882 82.72260283 23.84989923 84.57049107 24.39680481 86.41505432 C26.53547256 93.94331344 26.53547256 93.94331344 25 98 C22.38098933 100.61901067 19.6095808 101.09800817 16.1262207 101.99951172 C15.06464752 102.28291916 15.06464752 102.28291916 13.98162842 102.572052 C11.63135191 103.19776765 9.27862957 103.81371962 6.92578125 104.4296875 C5.28289652 104.86505149 3.64017314 105.30102478 1.99760437 105.73757935 C-2.34339977 106.88957043 -6.68652876 108.03334271 -11.03015137 109.17541504 C-15.39442188 110.32437155 -19.75671169 111.4807936 -24.11914062 112.63671875 C-29.0511427 113.9429861 -33.98335301 115.24843591 -38.91691589 116.54879761 C-40.04916957 116.8474406 -40.04916957 116.8474406 -41.20429707 117.15211678 C-42.67978509 117.54051033 -44.15563242 117.92754183 -45.63186169 118.31310844 C-49.18795542 119.24432074 -52.73272324 120.20182025 -56.26602173 121.21636963 C-56.94627568 121.40820894 -57.62652964 121.60004826 -58.32739735 121.79770088 C-60.1725892 122.31988623 -62.01456735 122.85339038 -63.85627747 123.38772583 C-68.9785957 124.38535304 -68.9785957 124.38535304 -72 123 C-74.57156841 118.28563385 -75.88998914 113.24997448 -77.23657227 108.06445312 C-77.53964798 106.92398781 -77.53964798 106.92398781 -77.84884644 105.76048279 C-78.5097253 103.26870397 -79.16308052 100.77501877 -79.81640625 98.28125 C-80.27766622 96.53669591 -80.73942045 94.79227243 -81.2016449 93.04797363 C-82.4138441 88.46852945 -83.61975883 83.88745416 -84.82421875 79.30596924 C-86.28667568 73.74764148 -87.75629709 68.19120478 -89.22507381 62.63454437 C-90.36815198 58.30963855 -91.51011342 53.98444884 -92.64857483 49.6583252 C-92.85887833 48.86011856 -93.06918182 48.06191193 -93.28585815 47.23951721 C-93.67508862 45.76204033 -94.06378329 44.28442213 -94.45179749 42.80662537 C-95.30211908 39.58121784 -96.18773379 36.38040882 -97.15513611 33.18762207 C-98.01826405 29.93109081 -97.9647644 28.18372251 -97 25 C-91.47137113 23.06013022 -85.90133129 21.35785609 -80.25 19.8125 C-78.99703125 19.46832031 -77.7440625 19.12414062 -76.453125 18.76953125 C-73.44633885 18.09946692 -71.04639033 17.93585518 -68 18 C-67.98018066 18.98919434 -67.96036133 19.97838867 -67.93994141 20.99755859 C-67.86396544 24.66172077 -67.77523648 28.32548164 -67.68261719 31.98925781 C-67.64429415 33.57609138 -67.60944712 35.16301281 -67.578125 36.75 C-67.53254569 39.02896566 -67.47454162 41.30732468 -67.4140625 43.5859375 C-67.40251129 44.29744965 -67.39096008 45.00896179 -67.37905884 45.74203491 C-67.36591761 49.82103657 -67.36591761 49.82103657 -65 53 C-61.32426077 52.71725083 -58.30268009 52.12107203 -54.875 50.75 C-52 50 -52 50 -49.4375 51.375 C-48.633125 51.91125 -47.82875 52.4475 -47 53 C-43.61928116 53.50710783 -42.39365542 53.25587602 -39.5 51.375 C-38.675 50.92125 -37.85 50.4675 -37 50 C-34.6875 50.6875 -34.6875 50.6875 -32 52 C-29.34939005 52.74672034 -26.68028714 53.36399966 -24 54 C-23.06210302 51.18630906 -22.85068018 49.356895 -22.79467773 46.43676758 C-22.77473251 45.51603958 -22.75478729 44.59531158 -22.73423767 43.64668274 C-22.71752518 42.65597275 -22.70081268 41.66526276 -22.68359375 40.64453125 C-22.6524221 39.11937141 -22.6524221 39.11937141 -22.62062073 37.56340027 C-22.55519952 34.31316937 -22.49627463 31.06285723 -22.4375 27.8125 C-22.39430773 25.61001762 -22.35069321 23.40754347 -22.30664062 21.20507812 C-22.19952573 15.80347147 -22.09774543 10.40178388 -22 5 C-19.9170757 4.35284867 -17.83364461 3.70732834 -15.75 3.0625 C-14.58984375 2.70285156 -13.4296875 2.34320313 -12.234375 1.97265625 C-7.93349609 0.679276 -4.50496151 -0.12513782 0 0 Z " fill="#C026D3" transform="translate(176,90)"/>
<path d="M0 0 C11.87931171 9.38921086 22.64865383 20.30604136 30.375 33.375 C30.99133301 34.40270508 30.99133301 34.40270508 31.62011719 35.45117188 C47.97461227 63.18429777 53.0500948 96.13100433 45.56933594 127.54589844 C43.51110865 135.48879746 40.89963066 142.95911042 37.375 150.375 C37.08254395 150.9927832 36.79008789 151.61056641 36.48876953 152.24707031 C26.68076897 172.63151192 10.93250366 190.81263702 -8.625 202.375 C-9.31013672 202.78588867 -9.99527344 203.19677734 -10.70117188 203.62011719 C-22.80209991 210.75615258 -34.95891107 215.22287343 -48.625 218.375 C-49.73746094 218.64054688 -50.84992188 218.90609375 -51.99609375 219.1796875 C-68.3451435 222.34962278 -86.51168232 221.44337246 -102.625 217.375 C-103.28371094 217.20871094 -103.94242187 217.04242188 -104.62109375 216.87109375 C-125.41243186 211.39968898 -143.12104806 201.24768354 -158.625 186.375 C-159.45773438 185.60542969 -160.29046875 184.83585938 -161.1484375 184.04296875 C-182.07745641 164.11210305 -195.03627939 133.85622878 -195.828125 105.0390625 C-195.98721886 92.79896895 -195.50817733 81.28377591 -192.625 69.375 C-192.47466309 68.7051709 -192.32432617 68.0353418 -192.16943359 67.34521484 C-185.6457325 38.87261286 -166.53378104 12.32402445 -142.0625 -3.5703125 C-130.73060315 -10.43994246 -119.4665806 -16.14555072 -106.625 -19.625 C-105.94872559 -19.81964844 -105.27245117 -20.01429687 -104.57568359 -20.21484375 C-69.05651653 -30.1977279 -29.50245435 -21.78252465 0 0 Z M-118.625 -4.625 C-119.80835937 -4.11066406 -120.99171875 -3.59632812 -122.2109375 -3.06640625 C-131.52592754 1.2980329 -139.57961561 7.01303771 -147.625 13.375 C-148.15963867 13.7963623 -148.69427734 14.21772461 -149.24511719 14.65185547 C-168.97290771 30.59921036 -180.00480454 56.07329395 -184.625 80.375 C-184.81707031 81.28894531 -185.00914062 82.20289062 -185.20703125 83.14453125 C-189.23449153 114.27265882 -180.07438846 144.25240061 -161.2734375 169 C-160.39470689 170.12819122 -159.51199738 171.25329658 -158.625 172.375 C-158.2036377 172.90963867 -157.78227539 173.44427734 -157.34814453 173.99511719 C-140.52217319 194.80980653 -111.73361597 207.47404267 -85.625 210.375 C-53.02861042 211.97507253 -25.263964 203.64924846 0.375 183.375 C0.90963867 182.9536377 1.44427734 182.53227539 1.99511719 182.09814453 C22.60130658 165.4407183 35.23354798 137.1724459 38.375 111.375 C38.65233004 107.12006883 38.70982509 102.88813528 38.6875 98.625 C38.67904053 96.91775757 38.67904053 96.91775757 38.67041016 95.17602539 C38.24493715 65.51718651 25.63172279 40.40444712 6.375 18.375 C-18.67219642 -4.93625212 -48.79143892 -14.85757939 -82.74414062 -13.77294922 C-95.4546778 -13.12018773 -107.00743267 -9.67885149 -118.625 -4.625 Z " fill="#C026D3" transform="translate(213.625,45.625)"/>
<path d="M0 0 C4.44995051 2.22497525 6.60084691 4.44633995 10 8 C12.31 5.36 14.62 2.72 17 0 C20.90432869 1.95216435 23.03839944 3.87386607 26 7 C30.16566899 5.23760158 32.21525743 3.15395214 36 0 C36 21.45 36 42.9 36 65 C33.36 63.68 30.72 62.36 28 61 C24.65081031 61.74426438 22.86959613 63.08693591 20 65 C16.94813574 64.76524121 15.35431648 64.27915844 12.9375 62.375 C11.13126052 60.78723093 11.13126052 60.78723093 9.0625 61.125 C6.55504494 62.18876881 4.32774243 63.59110327 2 65 C1.34 65 0.68 65 0 65 C0 43.55 0 22.1 0 0 Z " fill="#C026D3" transform="translate(113,74)"/>
</svg>
