<?xml version="1.0" encoding="UTF-8"?>
<svg version="1.1" xmlns="http://www.w3.org/2000/svg" width="789" height="280">
<path d="M0 0 C3.21335692 6.6957882 4.93374444 13.74678607 6.80078125 20.91015625 C7.16276953 22.28247406 7.5252625 23.65465883 7.88822937 25.02671814 C8.84243596 28.63868412 9.79038309 32.2522625 10.73681641 35.86627197 C11.86587604 40.1736249 13.00147654 44.47925656 14.13708305 48.78488731 C15.05727583 52.27406231 15.97566289 55.76368455 16.88943481 59.25454712 C18.51328356 65.44762938 20.16238377 71.63044155 21.91552734 77.78857422 C22.20324509 78.80616318 22.49096283 79.82375214 22.78739929 80.87217712 C23.31412882 82.72260283 23.84989923 84.57049107 24.39680481 86.41505432 C26.53547256 93.94331344 26.53547256 93.94331344 25 98 C22.38098933 100.61901067 19.6095808 101.09800817 16.1262207 101.99951172 C15.06464752 102.28291916 15.06464752 102.28291916 13.98162842 102.572052 C11.63135191 103.19776765 9.27862957 103.81371962 6.92578125 104.4296875 C5.28289652 104.86505149 3.64017314 105.30102478 1.99760437 105.73757935 C-2.34339977 106.88957043 -6.68652876 108.03334271 -11.03015137 109.17541504 C-15.39442188 110.32437155 -19.75671169 111.4807936 -24.11914062 112.63671875 C-29.0511427 113.9429861 -33.98335301 115.24843591 -38.91691589 116.54879761 C-40.04916957 116.8474406 -40.04916957 116.8474406 -41.20429707 117.15211678 C-42.67978509 117.54051033 -44.15563242 117.92754183 -45.63186169 118.31310844 C-49.18795542 119.24432074 -52.73272324 120.20182025 -56.26602173 121.21636963 C-56.94627568 121.40820894 -57.62652964 121.60004826 -58.32739735 121.79770088 C-60.1725892 122.31988623 -62.01456735 122.85339038 -63.85627747 123.38772583 C-68.9785957 124.38535304 -68.9785957 124.38535304 -72 123 C-74.57156841 118.28563385 -75.88998914 113.24997448 -77.23657227 108.06445312 C-77.53964798 106.92398781 -77.53964798 106.92398781 -77.84884644 105.76048279 C-78.5097253 103.26870397 -79.16308052 100.77501877 -79.81640625 98.28125 C-80.27766622 96.53669591 -80.73942045 94.79227243 -81.2016449 93.04797363 C-82.4138441 88.46852945 -83.61975883 83.88745416 -84.82421875 79.30596924 C-86.28667568 73.74764148 -87.75629709 68.19120478 -89.22507381 62.63454437 C-90.36815198 58.30963855 -91.51011342 53.98444884 -92.64857483 49.6583252 C-92.85887833 48.86011856 -93.06918182 48.06191193 -93.28585815 47.23951721 C-93.67508862 45.76204033 -94.06378329 44.28442213 -94.45179749 42.80662537 C-95.30211908 39.58121784 -96.18773379 36.38040882 -97.15513611 33.18762207 C-98.01826405 29.93109081 -97.9647644 28.18372251 -97 25 C-91.47137113 23.06013022 -85.90133129 21.35785609 -80.25 19.8125 C-78.99703125 19.46832031 -77.7440625 19.12414062 -76.453125 18.76953125 C-73.44633885 18.09946692 -71.04639033 17.93585518 -68 18 C-67.98018066 18.98919434 -67.96036133 19.97838867 -67.93994141 20.99755859 C-67.86396544 24.66172077 -67.77523648 28.32548164 -67.68261719 31.98925781 C-67.64429415 33.57609138 -67.60944712 35.16301281 -67.578125 36.75 C-67.53254569 39.02896566 -67.47454162 41.30732468 -67.4140625 43.5859375 C-67.40251129 44.29744965 -67.39096008 45.00896179 -67.37905884 45.74203491 C-67.36591761 49.82103657 -67.36591761 49.82103657 -65 53 C-61.32426077 52.71725083 -58.30268009 52.12107203 -54.875 50.75 C-52 50 -52 50 -49.4375 51.375 C-48.633125 51.91125 -47.82875 52.4475 -47 53 C-43.61928116 53.50710783 -42.39365542 53.25587602 -39.5 51.375 C-38.675 50.92125 -37.85 50.4675 -37 50 C-34.6875 50.6875 -34.6875 50.6875 -32 52 C-29.34939005 52.74672034 -26.68028714 53.36399966 -24 54 C-23.06210302 51.18630906 -22.85068018 49.356895 -22.79467773 46.43676758 C-22.77473251 45.51603958 -22.75478729 44.59531158 -22.73423767 43.64668274 C-22.71752518 42.65597275 -22.70081268 41.66526276 -22.68359375 40.64453125 C-22.6524221 39.11937141 -22.6524221 39.11937141 -22.62062073 37.56340027 C-22.55519952 34.31316937 -22.49627463 31.06285723 -22.4375 27.8125 C-22.39430773 25.61001762 -22.35069321 23.40754347 -22.30664062 21.20507812 C-22.19952573 15.80347147 -22.09774543 10.40178388 -22 5 C-19.9170757 4.35284867 -17.83364461 3.70732834 -15.75 3.0625 C-14.58984375 2.70285156 -13.4296875 2.34320313 -12.234375 1.97265625 C-7.93349609 0.679276 -4.50496151 -0.12513782 0 0 Z " fill="#C026D3" transform="translate(176,90)"/>
<path d="M0 0 C11.87931171 9.38921086 22.64865383 20.30604136 30.375 33.375 C30.99133301 34.40270508 30.99133301 34.40270508 31.62011719 35.45117188 C47.97461227 63.18429777 53.0500948 96.13100433 45.56933594 127.54589844 C43.51110865 135.48879746 40.89963066 142.95911042 37.375 150.375 C37.08254395 150.9927832 36.79008789 151.61056641 36.48876953 152.24707031 C26.68076897 172.63151192 10.93250366 190.81263702 -8.625 202.375 C-9.31013672 202.78588867 -9.99527344 203.19677734 -10.70117188 203.62011719 C-22.80209991 210.75615258 -34.95891107 215.22287343 -48.625 218.375 C-49.73746094 218.64054688 -50.84992188 218.90609375 -51.99609375 219.1796875 C-68.3451435 222.34962278 -86.51168232 221.44337246 -102.625 217.375 C-103.28371094 217.20871094 -103.94242187 217.04242188 -104.62109375 216.87109375 C-125.41243186 211.39968898 -143.12104806 201.24768354 -158.625 186.375 C-159.45773438 185.60542969 -160.29046875 184.83585938 -161.1484375 184.04296875 C-182.07745641 164.11210305 -195.03627939 133.85622878 -195.828125 105.0390625 C-195.98721886 92.79896895 -195.50817733 81.28377591 -192.625 69.375 C-192.47466309 68.7051709 -192.32432617 68.0353418 -192.16943359 67.34521484 C-185.6457325 38.87261286 -166.53378104 12.32402445 -142.0625 -3.5703125 C-130.73060315 -10.43994246 -119.4665806 -16.14555072 -106.625 -19.625 C-105.94872559 -19.81964844 -105.27245117 -20.01429687 -104.57568359 -20.21484375 C-69.05651653 -30.1977279 -29.50245435 -21.78252465 0 0 Z M-118.625 -4.625 C-119.80835937 -4.11066406 -120.99171875 -3.59632812 -122.2109375 -3.06640625 C-131.52592754 1.2980329 -139.57961561 7.01303771 -147.625 13.375 C-148.15963867 13.7963623 -148.69427734 14.21772461 -149.24511719 14.65185547 C-168.97290771 30.59921036 -180.00480454 56.07329395 -184.625 80.375 C-184.81707031 81.28894531 -185.00914062 82.20289062 -185.20703125 83.14453125 C-189.23449153 114.27265882 -180.07438846 144.25240061 -161.2734375 169 C-160.39470689 170.12819122 -159.51199738 171.25329658 -158.625 172.375 C-158.2036377 172.90963867 -157.78227539 173.44427734 -157.34814453 173.99511719 C-140.52217319 194.80980653 -111.73361597 207.47404267 -85.625 210.375 C-53.02861042 211.97507253 -25.263964 203.64924846 0.375 183.375 C0.90963867 182.9536377 1.44427734 182.53227539 1.99511719 182.09814453 C22.60130658 165.4407183 35.23354798 137.1724459 38.375 111.375 C38.65233004 107.12006883 38.70982509 102.88813528 38.6875 98.625 C38.67904053 96.91775757 38.67904053 96.91775757 38.67041016 95.17602539 C38.24493715 65.51718651 25.63172279 40.40444712 6.375 18.375 C-18.67219642 -4.93625212 -48.79143892 -14.85757939 -82.74414062 -13.77294922 C-95.4546778 -13.12018773 -107.00743267 -9.67885149 -118.625 -4.625 Z " fill="#C026D3" transform="translate(213.625,45.625)"/>
<path d="M0 0 C20 0 20 0 24.578125 3.71875 C26.0234375 6.04296875 26.0234375 6.04296875 27.25 8.5 C27.73210938 9.31082031 28.21421875 10.12164062 28.7109375 10.95703125 C29.87940272 12.94342213 30.96562872 14.9415625 32 17 C33.81434634 14.54301039 35.62654531 12.08448741 37.4375 9.625 C37.95376953 8.92632812 38.47003906 8.22765625 39.00195312 7.5078125 C39.49501953 6.8375 39.98808594 6.1671875 40.49609375 5.4765625 C40.95169678 4.85861816 41.4072998 4.24067383 41.87670898 3.60400391 C43.06782233 1.98664761 43.06782233 1.98664761 44 0 C50.6 0 57.2 0 64 0 C64 32.34 64 64.68 64 98 C58.39 98 52.78 98 47 98 C46.15409042 89.80280502 45.79927943 81.69455553 45.68359375 73.45703125 C45.66281265 72.20742111 45.64203156 70.95781097 45.62062073 69.67033386 C45.56674907 66.38747742 45.51637385 63.10459315 45.46777344 59.82165527 C45.41705947 56.45592485 45.36163698 53.09027207 45.30664062 49.72460938 C45.20014376 43.1498019 45.0982652 36.57493538 45 30 C44.68772461 30.4846875 44.37544922 30.969375 44.05371094 31.46875 C42.63338664 33.65548172 41.19214721 35.82760522 39.75 38 C39.25886719 38.763125 38.76773438 39.52625 38.26171875 40.3125 C37.77832031 41.034375 37.29492188 41.75625 36.796875 42.5 C36.35698242 43.1703125 35.91708984 43.840625 35.46386719 44.53125 C34.98079102 45.0159375 34.49771484 45.500625 34 46 C32.68 46 31.36 46 30 46 C28.64379883 44.63891602 28.64379883 44.63891602 27.45703125 42.75390625 C27.02326172 42.08166016 26.58949219 41.40941406 26.14257812 40.71679688 C25.70365234 40.00587891 25.26472656 39.29496094 24.8125 38.5625 C23.92370211 37.16763407 23.03440491 35.77308612 22.14453125 34.37890625 C21.75628174 33.7557251 21.36803223 33.13254395 20.96801758 32.49047852 C20.08106881 31.01177869 20.08106881 31.01177869 19 30 C18.67 52.44 18.34 74.88 18 98 C12.06 98 6.12 98 0 98 C0 65.66 0 33.32 0 0 Z " fill="#C026D3" transform="translate(513,95)"/>
<path d="M0 0 C6.6 0 13.2 0 20 0 C24.55333382 5.06442231 27.10388473 8.21450461 30 14 C30.99 15.485 30.99 15.485 32 17 C33.04262417 15.66741527 34.08403307 14.33387971 35.125 13 C35.78242187 12.18660156 36.43984375 11.37320313 37.1171875 10.53515625 C39.03555373 8.12263401 39.03555373 8.12263401 40.1328125 5.62109375 C41.54280336 2.86520252 42.38293786 1.73023651 45 0 C48.25346245 -0.42904397 51.46008179 -0.32264996 54.734375 -0.21484375 C56.06831299 -0.1915802 56.06831299 -0.1915802 57.42919922 -0.16784668 C59.62027806 -0.12740731 61.80973074 -0.07092327 64 0 C64.15356466 12.62989384 64.30174644 25.25983807 64.4429636 37.88987637 C64.50870016 43.75384936 64.57632484 49.61778816 64.64819336 55.48168945 C64.71741958 61.13557187 64.78177922 66.78949025 64.84269524 72.44346809 C64.86686053 74.60575451 64.89281047 76.76802171 64.92053413 78.93026543 C64.95892251 81.94753891 64.99109215 84.96481703 65.02172852 87.98217773 C65.03467453 88.8856041 65.04762054 89.78903046 65.06095886 90.71983337 C65.07898416 92.81324326 65.045292 94.90700251 65 97 C64 98 64 98 60.18359375 98.09765625 C58.60153318 98.09098089 57.01948841 98.07901875 55.4375 98.0625 C54.63119141 98.05798828 53.82488281 98.05347656 52.99414062 98.04882812 C50.99606244 98.03700518 48.99802217 98.01906914 47 98 C46.98969254 97.2955777 46.97938507 96.5911554 46.96876526 95.86538696 C46.87029213 89.18730146 46.7677128 82.50929266 46.66066074 75.83133888 C46.60578148 72.39914442 46.55242268 68.9669411 46.50268555 65.53466797 C46.44527574 61.57772093 46.38098844 57.62089921 46.31640625 53.6640625 C46.29969376 52.44699615 46.28298126 51.22992981 46.26576233 49.97598267 C46.15045452 43.26716979 45.81029394 36.662311 45 30 C44.65054321 30.52686401 44.30108643 31.05372803 43.94104004 31.59655762 C42.53210294 33.71626491 41.1096757 35.8266541 39.6875 37.9375 C39.18798828 38.69224609 38.68847656 39.44699219 38.17382812 40.22460938 C37.68720703 40.94326172 37.20058594 41.66191406 36.69921875 42.40234375 C36.03152466 43.39995728 36.03152466 43.39995728 35.3503418 44.41772461 C34 46 34 46 31 47 C30.67201416 46.52054932 30.34402832 46.04109863 30.00610352 45.54711914 C28.52600294 43.38482365 27.04427358 41.22364932 25.5625 39.0625 C24.7880957 37.93038086 24.7880957 37.93038086 23.99804688 36.77539062 C23.50498047 36.05673828 23.01191406 35.33808594 22.50390625 34.59765625 C22.04830322 33.93258057 21.5927002 33.26750488 21.12329102 32.58227539 C20.09224205 31.03649044 20.09224205 31.03649044 19 30 C18.67 52.44 18.34 74.88 18 98 C12.06 98 6.12 98 0 98 C0 65.66 0 33.32 0 0 Z " fill="#C026D3" transform="translate(647,95)"/>
<path d="M0 0 C1.46751239 0.00399142 2.93502584 0.01874717 4.40234375 0.04296875 C5.14806641 0.04361328 5.89378906 0.04425781 6.66210938 0.04492188 C12.19956216 0.09018716 12.19956216 0.09018716 13.33984375 1.23046875 C13.42846367 4.04210255 13.4550673 6.8290513 13.4375 9.640625 C13.43608505 10.48265976 13.4346701 11.32469452 13.43321228 12.19224548 C13.42759638 14.8925221 13.41504123 17.59271703 13.40234375 20.29296875 C13.3973308 22.11913943 13.39276754 23.94531141 13.38867188 25.77148438 C13.37847091 30.2578696 13.35889874 34.7440773 13.33984375 39.23046875 C19.60984375 39.23046875 25.87984375 39.23046875 32.33984375 39.23046875 C32.40042969 36.49894531 32.46101563 33.76742187 32.5234375 30.953125 C32.58517825 28.31873671 32.64858606 25.68439348 32.7121582 23.05004883 C32.75557195 21.21382628 32.79724214 19.37756167 32.8371582 17.54125977 C32.89470544 14.90758564 32.95844373 12.27412454 33.0234375 9.640625 C33.04014999 8.81458267 33.05686249 7.98854034 33.07408142 7.13746643 C33.22597204 1.34434046 33.22597204 1.34434046 34.33984375 0.23046875 C36.83222944 0.10393677 39.28454816 0.0452705 41.77734375 0.04296875 C42.47150391 0.03072266 43.16566406 0.01847656 43.88085938 0.00585938 C45.70205276 0.00057033 47.52271295 0.10877668 49.33984375 0.23046875 C52.03014524 2.92077024 51.57641262 4.97984601 51.58868408 8.63505554 C51.58149353 9.53488663 51.57430298 10.43471771 51.56689453 11.36181641 C51.56718658 12.3082048 51.56747864 13.2545932 51.56777954 14.22966003 C51.56638255 17.36804266 51.55080399 20.50618993 51.53515625 23.64453125 C51.53142743 25.81643545 51.52857984 27.98834132 51.52658081 30.1602478 C51.51893402 35.88464987 51.49927656 41.60895091 51.47717285 47.33331299 C51.45673692 53.1714135 51.44758392 59.0095303 51.4375 64.84765625 C51.41603164 76.30864535 51.38084099 87.76953285 51.33984375 99.23046875 C45.39984375 99.23046875 39.45984375 99.23046875 33.33984375 99.23046875 C33.27925781 96.43835938 33.21867187 93.64625 33.15625 90.76953125 C33.09448258 88.07223745 33.03108578 85.37498654 32.9675293 82.67773438 C32.92415586 80.79984333 32.88248257 78.92191223 32.8425293 77.04394531 C32.78488499 74.34818435 32.72117394 71.65262548 32.65625 68.95703125 C32.63953751 68.11427643 32.62282501 67.27152161 32.60560608 66.40322876 C32.60748231 62.18180265 32.60748231 62.18180265 31.33984375 58.23046875 C25.72984375 58.23046875 20.11984375 58.23046875 14.33984375 58.23046875 C14.00984375 71.76046875 13.67984375 85.29046875 13.33984375 99.23046875 C7.06984375 99.23046875 0.79984375 99.23046875 -5.66015625 99.23046875 C-5.70527344 86.6177837 -5.74199519 74.00515192 -5.76378059 61.39240456 C-5.77423449 55.53631222 -5.78842292 49.68027777 -5.81103516 43.82421875 C-5.83270635 38.17676598 -5.84471276 32.52936903 -5.84991074 26.8818779 C-5.85361681 24.72322078 -5.86085344 22.56456685 -5.87161636 20.40593338 C-5.88605522 17.39115965 -5.88813739 14.37661894 -5.88720703 11.36181641 C-5.89439758 10.46198532 -5.90158813 9.56215424 -5.90899658 8.63505554 C-5.88124979 0.37032416 -5.88124979 0.37032416 0 0 Z " fill="#C026D3" transform="translate(378.66015625,93.76953125)"/>
<path d="M0 0 C7.52774753 6.30230026 10.67659535 13.47476849 12 23 C12.26442946 26.71159417 12.30428763 30.4049003 12.30078125 34.125 C12.30506638 35.15254395 12.3093515 36.18008789 12.31376648 37.23876953 C12.31947258 39.39680245 12.32003774 41.55485458 12.31567383 43.71289062 C12.31250848 46.9912221 12.33603927 50.26865432 12.36132812 53.546875 C12.36360116 55.65624888 12.3643046 57.76562515 12.36328125 59.875 C12.372491 60.84195801 12.38170074 61.80891602 12.39118958 62.80517578 C12.30938306 74.99269257 8.69793658 83.17256486 0.25 91.8125 C-6.47988354 96.34222931 -13.23715959 97.69972701 -21.26171875 96.6328125 C-29.37449385 94.7579629 -35.38453527 90.89499031 -40 84 C-44.3127421 76.75516104 -44.58744425 70.03655437 -44.53125 61.75 C-44.5350769 60.49670898 -44.53890381 59.24341797 -44.54284668 57.95214844 C-44.54624839 54.64115026 -44.53027558 51.33091647 -44.5078125 48.02001953 C-44.50000535 46.00138303 -44.50778901 43.98344206 -44.52148438 41.96484375 C-44.54629793 38.05957234 -44.54317482 34.15531524 -44.53125 30.25 C-44.53934692 29.05600586 -44.54744385 27.86201172 -44.55578613 26.63183594 C-44.45008426 17.14635883 -42.33092425 9.67251253 -35.83984375 2.5703125 C-25.61411346 -6.15738087 -11.23822543 -7.61216185 0 0 Z M-24 16 C-26.18716451 19.28074676 -26.26215409 20.29844276 -26.30639648 24.1105957 C-26.32238388 25.15210281 -26.33837128 26.19360992 -26.35484314 27.26667786 C-26.36020584 28.39168198 -26.36556854 29.5166861 -26.37109375 30.67578125 C-26.38012222 31.83369675 -26.3891507 32.99161224 -26.39845276 34.18461609 C-26.41297119 36.63664153 -26.42184593 39.08870584 -26.42553711 41.54077148 C-26.43742107 45.28761369 -26.48658433 49.03280297 -26.53710938 52.77929688 C-26.54657481 55.16145029 -26.55380926 57.54361383 -26.55859375 59.92578125 C-26.57812607 61.04471268 -26.59765839 62.1636441 -26.61778259 63.31648254 C-26.64360986 69.95176074 -26.64360986 69.95176074 -23.68383789 75.68823242 C-20.33253389 78.57493283 -18.40249652 79.07861601 -14 79 C-10.32955325 77.66529209 -9.25325128 76.46532723 -7.38427734 73.03125 C-5.45148893 68.26870714 -5.56905053 63.5759647 -5.6015625 58.5 C-5.59869232 57.50548828 -5.59582214 56.51097656 -5.59286499 55.48632812 C-5.59083123 53.39192126 -5.59631276 51.29749511 -5.60888672 49.203125 C-5.62494979 46.00998177 -5.60901417 42.81810419 -5.58984375 39.625 C-5.5918263 37.58333056 -5.59567023 35.5416619 -5.6015625 33.5 C-5.59548981 32.55189453 -5.58941711 31.60378906 -5.5831604 30.62695312 C-5.65038376 24.24452814 -6.26532233 18.92327613 -10.8125 14.0625 C-15.8149463 11.63274037 -19.708969 12.78172675 -24 16 Z " fill="#C026D3" transform="translate(765,98)"/>
<path d="M0 0 C1.34160439 -0.01441132 1.34160439 -0.01441132 2.71031189 -0.02911377 C3.68319656 -0.03336365 4.65608124 -0.03761353 5.65844727 -0.04199219 C6.65111099 -0.04769226 7.64377472 -0.05339233 8.66651917 -0.05926514 C10.77066985 -0.06873031 12.87483545 -0.07525511 14.97900391 -0.07910156 C18.20769928 -0.08881558 21.43576063 -0.11982831 24.66430664 -0.15136719 C26.70401638 -0.15789596 28.7437307 -0.16314692 30.78344727 -0.16699219 C31.75430771 -0.17933899 32.72516815 -0.19168579 33.72544861 -0.20440674 C34.62300369 -0.20140564 35.52055878 -0.19840454 36.4453125 -0.1953125 C37.23727524 -0.19895813 38.02923798 -0.20260376 38.84519958 -0.20635986 C39.48611038 -0.08508728 40.12702118 0.0361853 40.78735352 0.16113281 C43.22664355 3.82006786 43.05025024 6.56391614 42.97485352 10.78613281 C42.97420898 11.47964844 42.97356445 12.17316406 42.97290039 12.88769531 C42.92778609 18.02070024 42.92778609 18.02070024 41.78735352 19.16113281 C39.71473275 19.24880394 37.63915057 19.26809154 35.56469727 19.25878906 C34.30463867 19.25556641 33.04458008 19.25234375 31.74633789 19.24902344 C30.40584243 19.24066685 29.06534764 19.23220189 27.72485352 19.22363281 C26.3804541 19.21861941 25.03605292 19.21405623 23.69165039 19.20996094 C20.39019919 19.19812778 17.08877092 19.18019167 13.78735352 19.16113281 C13.78735352 25.76113281 13.78735352 32.36113281 13.78735352 39.16113281 C23.02735352 39.16113281 32.26735352 39.16113281 41.78735352 39.16113281 C43.37432196 42.3350697 42.93049821 45.74287486 42.91235352 49.22363281 C42.9181543 50.3422168 42.9181543 50.3422168 42.92407227 51.48339844 C42.91398852 57.0344978 42.91398852 57.0344978 41.78735352 58.16113281 C39.71473275 58.24880394 37.63915057 58.26809154 35.56469727 58.25878906 C34.30463867 58.25556641 33.04458008 58.25234375 31.74633789 58.24902344 C30.40584243 58.24066685 29.06534764 58.23220189 27.72485352 58.22363281 C26.3804541 58.21861941 25.03605292 58.21405623 23.69165039 58.20996094 C20.39019919 58.19812778 17.08877092 58.18019167 13.78735352 58.16113281 C13.78735352 65.75113281 13.78735352 73.34113281 13.78735352 81.16113281 C16.80182617 81.14373047 16.80182617 81.14373047 19.87719727 81.12597656 C21.81656776 81.11902541 23.75593855 81.11210885 25.6953125 81.10620117 C27.04655738 81.10116225 28.39779677 81.09433104 29.74902344 81.08569336 C31.68755786 81.07360862 33.62613152 81.06843453 35.56469727 81.06347656 C37.31641235 81.05562134 37.31641235 81.05562134 39.10351562 81.04760742 C41.78735352 81.16113281 41.78735352 81.16113281 42.78735352 82.16113281 C42.78735352 87.77113281 42.78735352 93.38113281 42.78735352 99.16113281 C26.94735352 99.16113281 11.10735352 99.16113281 -5.21264648 99.16113281 C-5.25275529 74.743781 -5.25275529 74.743781 -5.26147461 64.37402344 C-5.26746356 57.28490454 -5.27456524 50.1957985 -5.28808594 43.10668945 C-5.2989131 37.39440711 -5.30492295 31.68213854 -5.30752373 25.96984673 C-5.30937829 23.78525005 -5.31299948 21.60065416 -5.31837654 19.41606331 C-5.3255847 16.36760932 -5.32663752 13.31921302 -5.32617188 10.27075195 C-5.32976715 9.35797485 -5.33336243 8.44519775 -5.33706665 7.50476074 C-5.32465281 0.0459533 -5.32465281 0.0459533 0 0 Z " fill="#C026D3" transform="translate(445.212646484375,93.8388671875)"/>
<path d="M0 0 C15.51 0 31.02 0 47 0 C47 5.94 47 11.88 47 18 C37.43 18 27.86 18 18 18 C18 24.93 18 31.86 18 39 C27.57 39 37.14 39 47 39 C48 44 48 44 48 56 C38.1 56 28.2 56 18 56 C18 63.92 18 71.84 18 80 C20.08183594 79.98839844 22.16367187 79.97679687 24.30859375 79.96484375 C26.31746298 79.95789265 28.32633251 79.95097611 30.33520508 79.94506836 C31.73495228 79.9400292 33.1346942 79.93319784 34.53442383 79.92456055 C36.54245777 79.9124768 38.55052957 79.90730193 40.55859375 79.90234375 C42.37315063 79.89448853 42.37315063 79.89448853 44.22436523 79.88647461 C47 80 47 80 48 81 C48 86.61 48 92.22 48 98 C32.16 98 16.32 98 0 98 C0 65.66 0 33.32 0 0 Z " fill="#C026D3" transform="translate(588,95)"/>
<path d="M0 0 C1.61672607 -0.00472824 1.61672607 -0.00472824 3.26611328 -0.009552 C4.43899902 -0.00752777 5.61188477 -0.00550354 6.8203125 -0.00341797 C8.0151123 -0.00437469 9.20991211 -0.00533142 10.44091797 -0.00631714 C12.9729823 -0.00699918 15.50504838 -0.00514325 18.03710938 -0.00097656 C21.9284251 0.00437132 25.81962539 -0.00092079 29.7109375 -0.00732422 C32.16406276 -0.00666344 34.61718794 -0.00538229 37.0703125 -0.00341797 C38.24319824 -0.0054422 39.41608398 -0.00746643 40.62451172 -0.009552 C41.7023291 -0.00639984 42.78014648 -0.00324768 43.890625 0 C44.84469238 0.00079559 45.79875977 0.00159119 46.78173828 0.00241089 C48.9453125 0.12939453 48.9453125 0.12939453 49.9453125 1.12939453 C50.03163124 2.47206866 50.05237723 3.81913775 50.04296875 5.16455078 C50.04047119 5.89295166 50.03797363 6.62135254 50.03540039 7.37182617 C50.02629639 8.30244873 50.01719238 9.23307129 50.0078125 10.19189453 C49.9871875 13.14126953 49.9665625 16.09064453 49.9453125 19.12939453 C43.6753125 19.12939453 37.4053125 19.12939453 30.9453125 19.12939453 C30.9453125 45.52939453 30.9453125 71.92939453 30.9453125 99.12939453 C25.0053125 99.12939453 19.0653125 99.12939453 12.9453125 99.12939453 C12.9453125 72.72939453 12.9453125 46.32939453 12.9453125 19.12939453 C6.6753125 19.12939453 0.4053125 19.12939453 -6.0546875 19.12939453 C-6.0753125 16.18001953 -6.0959375 13.23064453 -6.1171875 10.19189453 C-6.1262915 9.26127197 -6.13539551 8.33064941 -6.14477539 7.37182617 C-6.14727295 6.64342529 -6.14977051 5.91502441 -6.15234375 5.16455078 C-6.15758057 4.41568604 -6.16281738 3.66682129 -6.16821289 2.89526367 C-5.9245906 -0.89424171 -3.16395924 0.00263841 0 0 Z " fill="#C026D3" transform="translate(318.0546875,93.87060546875)"/>
<path d="M0 0 C4.44995051 2.22497525 6.60084691 4.44633995 10 8 C12.31 5.36 14.62 2.72 17 0 C20.90432869 1.95216435 23.03839944 3.87386607 26 7 C30.16566899 5.23760158 32.21525743 3.15395214 36 0 C36 21.45 36 42.9 36 65 C33.36 63.68 30.72 62.36 28 61 C24.65081031 61.74426438 22.86959613 63.08693591 20 65 C16.94813574 64.76524121 15.35431648 64.27915844 12.9375 62.375 C11.13126052 60.78723093 11.13126052 60.78723093 9.0625 61.125 C6.55504494 62.18876881 4.32774243 63.59110327 2 65 C1.34 65 0.68 65 0 65 C0 43.55 0 22.1 0 0 Z " fill="#C026D3" transform="translate(113,74)"/>
</svg>
